<mxfile host="app.diagrams.net" modified="2023-07-05T18:21:25.586Z" agent="Mozilla/5.0 (Windows NT 10.0; Win64; x64; rv:109.0) Gecko/20100101 Firefox/115.0" etag="KJqUirfRtkUElHcHGN6y" version="21.3.8" pages="3">
  <diagram id="WuZM6HAJlQjkPgxT957E" name="System Design">
    <mxGraphModel dx="1050" dy="580" grid="1" gridSize="10" guides="1" tooltips="1" connect="1" arrows="1" fold="1" page="1" pageScale="1" pageWidth="850" pageHeight="1100" math="0" shadow="0">
      <root>
        <mxCell id="0" />
        <mxCell id="1" parent="0" />
        <mxCell id="kDr_0Q5TTiajQ4MRIB6R-6" value="" style="rounded=1;whiteSpace=wrap;html=1;fontSize=16;fillColor=none;dashed=1;" parent="1" vertex="1">
          <mxGeometry x="160" y="200" width="610" height="165" as="geometry" />
        </mxCell>
        <mxCell id="kDr_0Q5TTiajQ4MRIB6R-4" style="edgeStyle=none;curved=1;rounded=0;orthogonalLoop=1;jettySize=auto;html=1;exitX=1;exitY=0.5;exitDx=0;exitDy=0;entryX=0;entryY=0.5;entryDx=0;entryDy=0;fontSize=12;startSize=8;endSize=8;" parent="1" source="3waSKzdy8N9RzqKJtNzq-1" target="kDr_0Q5TTiajQ4MRIB6R-3" edge="1">
          <mxGeometry relative="1" as="geometry" />
        </mxCell>
        <mxCell id="3waSKzdy8N9RzqKJtNzq-1" value="Frontend" style="rounded=0;whiteSpace=wrap;html=1;fontSize=22;" parent="1" vertex="1">
          <mxGeometry x="200" y="240" width="120" height="80" as="geometry" />
        </mxCell>
        <mxCell id="kDr_0Q5TTiajQ4MRIB6R-1" value="" style="image;aspect=fixed;html=1;points=[];align=center;fontSize=12;image=img/lib/azure2/databases/Azure_Database_PostgreSQL_Server.svg;" parent="1" vertex="1">
          <mxGeometry x="700" y="240" width="48" height="64" as="geometry" />
        </mxCell>
        <mxCell id="kDr_0Q5TTiajQ4MRIB6R-2" value="" style="image;aspect=fixed;html=1;points=[];align=center;fontSize=12;image=img/lib/azure2/containers/Kubernetes_Services.svg;" parent="1" vertex="1">
          <mxGeometry x="730" y="130" width="68" height="60" as="geometry" />
        </mxCell>
        <mxCell id="kDr_0Q5TTiajQ4MRIB6R-5" style="edgeStyle=none;curved=1;rounded=0;orthogonalLoop=1;jettySize=auto;html=1;exitX=1;exitY=0.5;exitDx=0;exitDy=0;fontSize=12;startSize=8;endSize=8;entryX=-0.021;entryY=0.641;entryDx=0;entryDy=0;entryPerimeter=0;" parent="1" source="kDr_0Q5TTiajQ4MRIB6R-3" target="kDr_0Q5TTiajQ4MRIB6R-1" edge="1">
          <mxGeometry relative="1" as="geometry">
            <mxPoint x="640" y="250" as="targetPoint" />
          </mxGeometry>
        </mxCell>
        <mxCell id="kDr_0Q5TTiajQ4MRIB6R-3" value="Backend" style="rounded=0;whiteSpace=wrap;html=1;fontSize=22;" parent="1" vertex="1">
          <mxGeometry x="440" y="240" width="120" height="80" as="geometry" />
        </mxCell>
      </root>
    </mxGraphModel>
  </diagram>
  <diagram id="7TUon_OAfACJMMWeLAsz" name="Backend Architecture">
    <mxGraphModel dx="1050" dy="580" grid="1" gridSize="10" guides="1" tooltips="1" connect="1" arrows="1" fold="1" page="1" pageScale="1" pageWidth="850" pageHeight="1100" math="0" shadow="0">
      <root>
        <mxCell id="0" />
        <mxCell id="1" parent="0" />
        <mxCell id="cDnSqKmzusoCDcpOEk3S-1" value="Application Layer" style="rounded=0;whiteSpace=wrap;html=1;fontSize=22;" vertex="1" parent="1">
          <mxGeometry x="200" y="160" width="240" height="80" as="geometry" />
        </mxCell>
        <mxCell id="cDnSqKmzusoCDcpOEk3S-2" value="API Layer" style="rounded=0;whiteSpace=wrap;html=1;fontSize=22;" vertex="1" parent="1">
          <mxGeometry x="200" y="40" width="240" height="80" as="geometry" />
        </mxCell>
        <mxCell id="cDnSqKmzusoCDcpOEk3S-3" value="Persistence Layer" style="rounded=0;whiteSpace=wrap;html=1;fontSize=22;" vertex="1" parent="1">
          <mxGeometry x="200" y="280" width="240" height="80" as="geometry" />
        </mxCell>
        <mxCell id="cDnSqKmzusoCDcpOEk3S-4" value="Domain Layer" style="rounded=0;whiteSpace=wrap;html=1;fontSize=22;" vertex="1" parent="1">
          <mxGeometry x="200" y="400" width="240" height="80" as="geometry" />
        </mxCell>
        <mxCell id="cDnSqKmzusoCDcpOEk3S-5" value="Acts as the interface for accessing services through Endpoints" style="text;html=1;strokeColor=none;fillColor=none;align=center;verticalAlign=middle;whiteSpace=wrap;rounded=0;fontSize=16;" vertex="1" parent="1">
          <mxGeometry x="480" y="40" width="280" height="80" as="geometry" />
        </mxCell>
        <mxCell id="cDnSqKmzusoCDcpOEk3S-6" value="Contains all business logic, leverages MediatR Handlers" style="text;html=1;strokeColor=none;fillColor=none;align=center;verticalAlign=middle;whiteSpace=wrap;rounded=0;fontSize=16;" vertex="1" parent="1">
          <mxGeometry x="480" y="160" width="280" height="80" as="geometry" />
        </mxCell>
        <mxCell id="cDnSqKmzusoCDcpOEk3S-7" value="The Datastore layer that contains EF Core DbContext and Config for CRUD Operations" style="text;html=1;strokeColor=none;fillColor=none;align=center;verticalAlign=middle;whiteSpace=wrap;rounded=0;fontSize=16;" vertex="1" parent="1">
          <mxGeometry x="480" y="280" width="280" height="80" as="geometry" />
        </mxCell>
        <mxCell id="cDnSqKmzusoCDcpOEk3S-8" value="The Core layer that contains all Domain Models for the System" style="text;html=1;strokeColor=none;fillColor=none;align=center;verticalAlign=middle;whiteSpace=wrap;rounded=0;fontSize=16;" vertex="1" parent="1">
          <mxGeometry x="480" y="400" width="280" height="80" as="geometry" />
        </mxCell>
      </root>
    </mxGraphModel>
  </diagram>
  <diagram id="dopHtzjoXnrHitdYmm_V" name="Class Diagram">
    <mxGraphModel dx="1050" dy="580" grid="1" gridSize="10" guides="1" tooltips="1" connect="1" arrows="1" fold="1" page="1" pageScale="1" pageWidth="850" pageHeight="1100" math="0" shadow="0">
      <root>
        <mxCell id="0" />
        <mxCell id="1" parent="0" />
        <mxCell id="lDe6hgvJxnNMGVurcxBt-27" style="edgeStyle=none;rounded=0;orthogonalLoop=1;jettySize=auto;html=1;exitX=0.5;exitY=0;exitDx=0;exitDy=0;fontSize=12;startSize=8;endSize=14;startArrow=none;startFill=0;endArrow=none;endFill=0;" edge="1" parent="1" source="lDe6hgvJxnNMGVurcxBt-1">
          <mxGeometry relative="1" as="geometry">
            <mxPoint x="440" y="200" as="targetPoint" />
            <Array as="points">
              <mxPoint x="130" y="200" />
              <mxPoint x="440" y="200" />
            </Array>
          </mxGeometry>
        </mxCell>
        <mxCell id="lDe6hgvJxnNMGVurcxBt-1" value="Employee" style="swimlane;fontStyle=0;childLayout=stackLayout;horizontal=1;startSize=26;fillColor=none;horizontalStack=0;resizeParent=1;resizeParentMax=0;resizeLast=0;collapsible=1;marginBottom=0;whiteSpace=wrap;html=1;fontSize=16;" vertex="1" parent="1">
          <mxGeometry x="10" y="280" width="240" height="104" as="geometry" />
        </mxCell>
        <mxCell id="lDe6hgvJxnNMGVurcxBt-2" value="+ Name: string" style="text;strokeColor=none;fillColor=none;align=left;verticalAlign=top;spacingLeft=4;spacingRight=4;overflow=hidden;rotatable=0;points=[[0,0.5],[1,0.5]];portConstraint=eastwest;whiteSpace=wrap;html=1;fontSize=16;" vertex="1" parent="lDe6hgvJxnNMGVurcxBt-1">
          <mxGeometry y="26" width="240" height="26" as="geometry" />
        </mxCell>
        <mxCell id="lDe6hgvJxnNMGVurcxBt-3" value="+ AnnualVacationRemaining: int" style="text;strokeColor=none;fillColor=none;align=left;verticalAlign=top;spacingLeft=4;spacingRight=4;overflow=hidden;rotatable=0;points=[[0,0.5],[1,0.5]];portConstraint=eastwest;whiteSpace=wrap;html=1;fontSize=16;" vertex="1" parent="lDe6hgvJxnNMGVurcxBt-1">
          <mxGeometry y="52" width="240" height="26" as="geometry" />
        </mxCell>
        <mxCell id="lDe6hgvJxnNMGVurcxBt-4" value="+ SickVacationRemaining: int" style="text;strokeColor=none;fillColor=none;align=left;verticalAlign=top;spacingLeft=4;spacingRight=4;overflow=hidden;rotatable=0;points=[[0,0.5],[1,0.5]];portConstraint=eastwest;whiteSpace=wrap;html=1;fontSize=16;" vertex="1" parent="lDe6hgvJxnNMGVurcxBt-1">
          <mxGeometry y="78" width="240" height="26" as="geometry" />
        </mxCell>
        <mxCell id="lDe6hgvJxnNMGVurcxBt-5" value="BaseEntity&amp;lt;T&amp;gt;" style="swimlane;fontStyle=0;childLayout=stackLayout;horizontal=1;startSize=26;fillColor=none;horizontalStack=0;resizeParent=1;resizeParentMax=0;resizeLast=0;collapsible=1;marginBottom=0;whiteSpace=wrap;html=1;fontSize=16;" vertex="1" parent="1">
          <mxGeometry x="370" y="50" width="140" height="52" as="geometry" />
        </mxCell>
        <mxCell id="lDe6hgvJxnNMGVurcxBt-6" value="+ ID: T" style="text;strokeColor=none;fillColor=none;align=left;verticalAlign=top;spacingLeft=4;spacingRight=4;overflow=hidden;rotatable=0;points=[[0,0.5],[1,0.5]];portConstraint=eastwest;whiteSpace=wrap;html=1;fontSize=16;" vertex="1" parent="lDe6hgvJxnNMGVurcxBt-5">
          <mxGeometry y="26" width="140" height="26" as="geometry" />
        </mxCell>
        <mxCell id="lDe6hgvJxnNMGVurcxBt-13" value="VacationRequest" style="swimlane;fontStyle=0;childLayout=stackLayout;horizontal=1;startSize=26;fillColor=none;horizontalStack=0;resizeParent=1;resizeParentMax=0;resizeLast=0;collapsible=1;marginBottom=0;whiteSpace=wrap;html=1;fontSize=16;" vertex="1" parent="1">
          <mxGeometry x="360" y="280" width="240" height="130" as="geometry" />
        </mxCell>
        <mxCell id="lDe6hgvJxnNMGVurcxBt-14" value="+ StartDate: DateTimeOffset" style="text;strokeColor=none;fillColor=none;align=left;verticalAlign=top;spacingLeft=4;spacingRight=4;overflow=hidden;rotatable=0;points=[[0,0.5],[1,0.5]];portConstraint=eastwest;whiteSpace=wrap;html=1;fontSize=16;" vertex="1" parent="lDe6hgvJxnNMGVurcxBt-13">
          <mxGeometry y="26" width="240" height="26" as="geometry" />
        </mxCell>
        <mxCell id="lDe6hgvJxnNMGVurcxBt-15" value="+ EndDate: DateTimeOffset" style="text;strokeColor=none;fillColor=none;align=left;verticalAlign=top;spacingLeft=4;spacingRight=4;overflow=hidden;rotatable=0;points=[[0,0.5],[1,0.5]];portConstraint=eastwest;whiteSpace=wrap;html=1;fontSize=16;" vertex="1" parent="lDe6hgvJxnNMGVurcxBt-13">
          <mxGeometry y="52" width="240" height="26" as="geometry" />
        </mxCell>
        <mxCell id="lDe6hgvJxnNMGVurcxBt-16" value="+ RequestingEmployeeID: Guid" style="text;strokeColor=none;fillColor=none;align=left;verticalAlign=top;spacingLeft=4;spacingRight=4;overflow=hidden;rotatable=0;points=[[0,0.5],[1,0.5]];portConstraint=eastwest;whiteSpace=wrap;html=1;fontSize=16;" vertex="1" parent="lDe6hgvJxnNMGVurcxBt-13">
          <mxGeometry y="78" width="240" height="26" as="geometry" />
        </mxCell>
        <mxCell id="lDe6hgvJxnNMGVurcxBt-17" value="+ VacationTypeID: int" style="text;strokeColor=none;fillColor=none;align=left;verticalAlign=top;spacingLeft=4;spacingRight=4;overflow=hidden;rotatable=0;points=[[0,0.5],[1,0.5]];portConstraint=eastwest;whiteSpace=wrap;html=1;fontSize=16;" vertex="1" parent="lDe6hgvJxnNMGVurcxBt-13">
          <mxGeometry y="104" width="240" height="26" as="geometry" />
        </mxCell>
        <mxCell id="lDe6hgvJxnNMGVurcxBt-18" value="VacationType" style="swimlane;fontStyle=0;childLayout=stackLayout;horizontal=1;startSize=26;fillColor=none;horizontalStack=0;resizeParent=1;resizeParentMax=0;resizeLast=0;collapsible=1;marginBottom=0;whiteSpace=wrap;html=1;fontSize=16;" vertex="1" parent="1">
          <mxGeometry x="701" y="315" width="140" height="52" as="geometry" />
        </mxCell>
        <mxCell id="lDe6hgvJxnNMGVurcxBt-19" value="+ Name: string" style="text;strokeColor=none;fillColor=none;align=left;verticalAlign=top;spacingLeft=4;spacingRight=4;overflow=hidden;rotatable=0;points=[[0,0.5],[1,0.5]];portConstraint=eastwest;whiteSpace=wrap;html=1;fontSize=16;" vertex="1" parent="lDe6hgvJxnNMGVurcxBt-18">
          <mxGeometry y="26" width="140" height="26" as="geometry" />
        </mxCell>
        <mxCell id="lDe6hgvJxnNMGVurcxBt-20" value="1" style="endArrow=open;html=1;endSize=16;startArrow=diamondThin;startSize=40;startFill=0;edgeStyle=orthogonalEdgeStyle;align=left;verticalAlign=bottom;rounded=0;fontSize=20;curved=1;exitX=0;exitY=0.5;exitDx=0;exitDy=0;entryX=1;entryY=0.5;entryDx=0;entryDy=0;" edge="1" parent="1" source="lDe6hgvJxnNMGVurcxBt-15" target="lDe6hgvJxnNMGVurcxBt-3">
          <mxGeometry x="-0.4545" y="-25" relative="1" as="geometry">
            <mxPoint x="210" y="470" as="sourcePoint" />
            <mxPoint x="340" y="470" as="targetPoint" />
            <mxPoint as="offset" />
          </mxGeometry>
        </mxCell>
        <mxCell id="lDe6hgvJxnNMGVurcxBt-21" value="1" style="endArrow=open;html=1;endSize=16;startArrow=diamondThin;startSize=40;startFill=0;edgeStyle=orthogonalEdgeStyle;align=left;verticalAlign=bottom;rounded=0;fontSize=20;curved=1;exitX=1;exitY=0.5;exitDx=0;exitDy=0;entryX=-0.036;entryY=0.154;entryDx=0;entryDy=0;entryPerimeter=0;" edge="1" parent="1" source="lDe6hgvJxnNMGVurcxBt-15" target="lDe6hgvJxnNMGVurcxBt-19">
          <mxGeometry x="-0.5554" y="25" relative="1" as="geometry">
            <mxPoint x="730" y="430" as="sourcePoint" />
            <mxPoint x="620" y="430" as="targetPoint" />
            <mxPoint as="offset" />
          </mxGeometry>
        </mxCell>
        <mxCell id="lDe6hgvJxnNMGVurcxBt-29" style="edgeStyle=none;rounded=0;orthogonalLoop=1;jettySize=auto;html=1;exitX=0.333;exitY=-0.015;exitDx=0;exitDy=0;fontSize=12;startSize=8;endSize=14;startArrow=none;startFill=0;endArrow=block;endFill=0;entryX=0.493;entryY=1.115;entryDx=0;entryDy=0;entryPerimeter=0;exitPerimeter=0;" edge="1" parent="1" source="lDe6hgvJxnNMGVurcxBt-13" target="lDe6hgvJxnNMGVurcxBt-6">
          <mxGeometry relative="1" as="geometry">
            <mxPoint x="450" y="116" as="targetPoint" />
            <mxPoint x="140" y="290" as="sourcePoint" />
            <Array as="points">
              <mxPoint x="439" y="210" />
            </Array>
          </mxGeometry>
        </mxCell>
        <mxCell id="lDe6hgvJxnNMGVurcxBt-30" style="edgeStyle=none;rounded=0;orthogonalLoop=1;jettySize=auto;html=1;exitX=0.429;exitY=0.058;exitDx=0;exitDy=0;fontSize=12;startSize=8;endSize=14;startArrow=none;startFill=0;endArrow=none;endFill=0;exitPerimeter=0;" edge="1" parent="1" source="lDe6hgvJxnNMGVurcxBt-18">
          <mxGeometry relative="1" as="geometry">
            <mxPoint x="440" y="200" as="targetPoint" />
            <mxPoint x="140" y="290" as="sourcePoint" />
            <Array as="points">
              <mxPoint x="760" y="200" />
              <mxPoint x="440" y="200" />
            </Array>
          </mxGeometry>
        </mxCell>
        <mxCell id="lDe6hgvJxnNMGVurcxBt-31" value="*" style="text;html=1;strokeColor=none;fillColor=none;align=center;verticalAlign=middle;whiteSpace=wrap;rounded=0;fontSize=28;" vertex="1" parent="1">
          <mxGeometry x="240" y="310" width="60" height="30" as="geometry" />
        </mxCell>
        <mxCell id="lDe6hgvJxnNMGVurcxBt-32" value="*" style="text;html=1;strokeColor=none;fillColor=none;align=center;verticalAlign=middle;whiteSpace=wrap;rounded=0;fontSize=28;" vertex="1" parent="1">
          <mxGeometry x="650" y="300" width="60" height="30" as="geometry" />
        </mxCell>
      </root>
    </mxGraphModel>
  </diagram>
</mxfile>
